<svg xmlns="http://www.w3.org/2000/svg" version="1.1" xmlns:xlink="http://www.w3.org/1999/xlink"
  xmlns:svgjs="http://svgjs.dev/svgjs" width="1500" height="1500" viewBox="0 0 1500 1500">
  <rect width="1500" height="1500" fill="#ffffff"></rect>
  <g
    transform="matrix(0.6666666666666666,0,0,0.6666666666666666,249.39393939393938,435.99032258064517)">
    <svg viewBox="0 0 396 248" data-background-color="" preserveAspectRatio="xMidYMid meet"
      height="939" width="1500" xmlns="http://www.w3.org/2000/svg"
      xmlns:xlink="http://www.w3.org/1999/xlink">
      <g id="tight-bounds" transform="matrix(1,0,0,1,0.2400000000000091,0.4000000000000057)">
        <svg viewBox="0 0 395.52 247.2" height="247.2" width="395.52">
          <g>
            <svg></svg>
          </g>
          <g>
            <svg viewBox="0 0 395.52 247.2" height="247.2" width="395.52">
              <g transform="matrix(1,0,0,1,75.54432,80.41834793041807)">
                <svg viewBox="0 0 244.43135999999998 86.36330413916386" height="86.36330413916386"
                  width="244.43135999999998">
                  <g>
                    <svg viewBox="0 0 244.43135999999998 86.36330413916386"
                      height="86.36330413916386" width="244.43135999999998">
                      <g>
                        <svg viewBox="0 0 244.43135999999998 86.36330413916386"
                          height="86.36330413916386" width="244.43135999999998">
                          <g id="textblocktransform">
                            <svg viewBox="0 0 244.43135999999998 86.36330413916386"
                              height="86.36330413916386" width="244.43135999999998" id="textblock">
                              <g>
                                <svg viewBox="0 0 244.43135999999998 58.79792164948453"
                                  height="58.79792164948453" width="244.43135999999998">
                                  <g transform="matrix(1,0,0,1,0,0)">
                                    <svg width="244.43135999999998"
                                      viewBox="1.7999999999999998 -28 116.39 28"
                                      height="58.79792164948453" data-palette-color="#000000">
                                      <path
                                        d="M18.2-26Q18.2-24.85 18-24L18-24Q18.2-23.2 18.2-22L18.2-22Q18.2-20.85 18-20L18-20 16-20Q16.2-19.2 16.2-18L16.2-18Q16.2-16.85 16-16L16-16 14-16Q14.2-15.2 14.2-14L14.2-14Q14.2-12.85 14-12L14-12 12-12Q12.2-11.2 12.2-10L12.2-10Q12.2-8.85 12-8L12-8Q12.2-7.2 12.2-6L12.2-6Q12.2-4.85 12-4L12-4Q12.2-3.2 12.2-2L12.2-2Q12.2-0.85 12 0L12 0 8 0Q7.8-0.85 7.8-2L7.8-2Q7.8-3.2 8-4L8-4Q7.8-4.85 7.8-6L7.8-6Q7.8-7.2 8-8L8-8Q7.8-8.85 7.8-10L7.8-10Q7.8-11.2 8-12L8-12 6-12Q5.8-12.85 5.8-14L5.8-14Q5.8-15.2 6-16L6-16 4-16Q3.8-16.85 3.8-18L3.8-18Q3.8-19.2 4-20L4-20 2-20Q1.8-20.85 1.8-22L1.8-22Q1.8-23.2 2-24L2-24Q1.8-24.85 1.8-26L1.8-26Q1.8-27.2 2-28L2-28 6-28Q6.2-27.2 6.2-26L6.2-26Q6.2-24.85 6-24L6-24Q6.2-23.2 6.2-22L6.2-22Q6.2-20.85 6-20L6-20 8-20Q8.2-19.2 8.2-18L8.2-18Q8.2-16.85 8-16L8-16 12-16Q11.8-16.85 11.8-18L11.8-18Q11.8-19.2 12-20L12-20 14-20Q13.8-20.85 13.8-22L13.8-22Q13.8-23.2 14-24L14-24Q13.8-24.85 13.8-26L13.8-26Q13.8-27.2 14-28L14-28 18-28Q18.2-27.2 18.2-26L18.2-26ZM32-4L35-4Q35.2-3.2 35.2-2L35.2-2Q35.2-0.85 35 0L35 0 25 0Q24.8-0.85 24.8-2L24.8-2Q24.8-3.2 25-4L25-4 28-4Q27.8-4.85 27.8-6L27.8-6Q27.8-7.2 28-8L28-8Q27.8-8.85 27.8-10L27.8-10Q27.8-11.2 28-12L28-12Q27.8-12.85 27.8-14L27.8-14Q27.8-15.2 28-16L28-16Q27.8-16.85 27.8-18L27.8-18Q27.8-19.2 28-20L28-20Q27.8-20.85 27.8-22L27.8-22Q27.8-23.2 28-24L28-24 25-24Q24.8-24.85 24.8-26L24.8-26Q24.8-27.2 25-28L25-28 35-28Q35.2-27.2 35.2-26L35.2-26Q35.2-24.85 35-24L35-24 32-24Q32.2-23.2 32.2-22L32.2-22Q32.2-20.85 32-20L32-20Q32.2-19.2 32.2-18L32.2-18Q32.2-16.85 32-16L32-16Q32.2-15.2 32.2-14L32.2-14Q32.2-12.85 32-12L32-12Q32.2-11.2 32.2-10L32.2-10Q32.2-8.85 32-8L32-8Q32.2-7.2 32.2-6L32.2-6Q32.2-4.85 32-4L32-4ZM58-16Q58.2-15.2 58.2-14L58.2-14Q58.2-12.85 58-12L58-12Q58.2-11.2 58.2-10L58.2-10Q58.2-8.85 58-8L58-8 56-8Q56.2-7.2 56.2-6L56.2-6Q56.2-4.85 56-4L56-4 54-4Q54.2-3.2 54.2-2L54.2-2Q54.2-0.85 54 0L54 0 42 0Q41.8-0.85 41.8-2L41.8-2Q41.8-3.2 42-4L42-4Q41.8-4.85 41.8-6L41.8-6Q41.8-7.2 42-8L42-8Q41.8-8.85 41.8-10L41.8-10Q41.8-11.2 42-12L42-12Q41.8-12.85 41.8-14L41.8-14Q41.8-15.2 42-16L42-16Q41.8-16.85 41.8-18L41.8-18Q41.8-19.2 42-20L42-20Q41.8-20.85 41.8-22L41.8-22Q41.8-23.2 42-24L42-24Q41.8-24.85 41.8-26L41.8-26Q41.8-27.2 42-28L42-28 54-28Q54.2-27.2 54.2-26L54.2-26Q54.2-24.85 54-24L54-24 56-24Q56.2-23.2 56.2-22L56.2-22Q56.2-20.85 56-20L56-20 58-20Q58.2-19.2 58.2-18L58.2-18Q58.2-16.85 58-16L58-16ZM54-8Q53.8-8.85 53.8-10L53.8-10Q53.8-11.2 54-12L54-12Q53.8-12.85 53.8-14L53.8-14Q53.8-15.2 54-16L54-16Q53.8-16.85 53.8-18L53.8-18Q53.8-19.2 54-20L54-20 52-20Q51.8-20.85 51.8-22L51.8-22Q51.8-23.2 52-24L52-24 46-24Q46.2-23.2 46.2-22L46.2-22Q46.2-20.85 46-20L46-20Q46.2-19.2 46.2-18L46.2-18Q46.2-16.85 46-16L46-16Q46.2-15.2 46.2-14L46.2-14Q46.2-12.85 46-12L46-12Q46.2-11.2 46.2-10L46.2-10Q46.2-8.85 46-8L46-8Q46.2-7.2 46.2-6L46.2-6Q46.2-4.85 46-4L46-4 52-4Q51.8-4.85 51.8-6L51.8-6Q51.8-7.2 52-8L52-8 54-8ZM71.99-4L74.99-4Q75.19-3.2 75.19-2L75.19-2Q75.19-0.85 74.99 0L74.99 0 64.99 0Q64.79-0.85 64.79-2L64.79-2Q64.79-3.2 64.99-4L64.99-4 67.99-4Q67.79-4.85 67.79-6L67.79-6Q67.79-7.2 67.99-8L67.99-8Q67.79-8.85 67.79-10L67.79-10Q67.79-11.2 67.99-12L67.99-12Q67.79-12.85 67.79-14L67.79-14Q67.79-15.2 67.99-16L67.99-16Q67.79-16.85 67.79-18L67.79-18Q67.79-19.2 67.99-20L67.99-20Q67.79-20.85 67.79-22L67.79-22Q67.79-23.2 67.99-24L67.99-24 64.99-24Q64.79-24.85 64.79-26L64.79-26Q64.79-27.2 64.99-28L64.99-28 74.99-28Q75.19-27.2 75.19-26L75.19-26Q75.19-24.85 74.99-24L74.99-24 71.99-24Q72.19-23.2 72.19-22L72.19-22Q72.19-20.85 71.99-20L71.99-20Q72.19-19.2 72.19-18L72.19-18Q72.19-16.85 71.99-16L71.99-16Q72.19-15.2 72.19-14L72.19-14Q72.19-12.85 71.99-12L71.99-12Q72.19-11.2 72.19-10L72.19-10Q72.19-8.85 71.99-8L71.99-8Q72.19-7.2 72.19-6L72.19-6Q72.19-4.85 71.99-4L71.99-4ZM98.19-6Q98.19-4.85 97.99-4L97.99-4Q98.19-3.2 98.19-2L98.19-2Q98.19-0.85 97.99 0L97.99 0 93.99 0Q93.79-0.85 93.79-2L93.79-2Q93.79-3.2 93.99-4L93.99-4Q93.79-4.85 93.79-6L93.79-6Q93.79-7.2 93.99-8L93.99-8 85.99-8Q86.19-7.2 86.19-6L86.19-6Q86.19-4.85 85.99-4L85.99-4Q86.19-3.2 86.19-2L86.19-2Q86.19-0.85 85.99 0L85.99 0 81.99 0Q81.79-0.85 81.79-2L81.79-2Q81.79-3.2 81.99-4L81.99-4Q81.79-4.85 81.79-6L81.79-6Q81.79-7.2 81.99-8L81.99-8 83.49-8Q83.29-8.85 83.29-10L83.29-10Q83.29-11.2 83.49-12L83.49-12Q83.29-12.85 83.29-14L83.29-14Q83.29-15.2 83.49-16L83.49-16 84.49-16Q84.29-16.85 84.29-18L84.29-18Q84.29-19.2 84.49-20L84.49-20 85.99-20Q85.79-20.85 85.79-22L85.79-22Q85.79-23.2 85.99-24L85.99-24 86.99-24Q86.79-24.85 86.79-26L86.79-26Q86.79-27.2 86.99-28L86.99-28 92.99-28Q93.19-27.2 93.19-26L93.19-26Q93.19-24.85 92.99-24L92.99-24 93.99-24Q94.19-23.2 94.19-22L94.19-22Q94.19-20.85 93.99-20L93.99-20 95.49-20Q95.69-19.2 95.69-18L95.69-18Q95.69-16.85 95.49-16L95.49-16 96.49-16Q96.69-15.2 96.69-14L96.69-14Q96.69-12.85 96.49-12L96.49-12Q96.69-11.2 96.69-10L96.69-10Q96.69-8.85 96.49-8L96.49-8 97.99-8Q98.19-7.2 98.19-6L98.19-6ZM92.49-12Q92.29-12.85 92.29-14L92.29-14Q92.29-15.2 92.49-16L92.49-16 91.49-16Q91.29-16.85 91.29-18L91.29-18Q91.29-19.2 91.49-20L91.49-20 88.49-20Q88.69-19.2 88.69-18L88.69-18Q88.69-16.85 88.49-16L88.49-16 87.49-16Q87.69-15.2 87.69-14L87.69-14Q87.69-12.85 87.49-12L87.49-12 92.49-12ZM117.99-24Q118.19-23.2 118.19-22L118.19-22Q118.19-20.85 117.99-20L117.99-20Q118.19-19.2 118.19-18L118.19-18Q118.19-16.85 117.99-16L117.99-16Q118.19-15.2 118.19-14L118.19-14Q118.19-12.85 117.99-12L117.99-12Q118.19-11.2 118.19-10L118.19-10Q118.19-8.85 117.99-8L117.99-8Q118.19-7.2 118.19-6L118.19-6Q118.19-4.85 117.99-4L117.99-4Q118.19-3.2 118.19-2L118.19-2Q118.19-0.85 117.99 0L117.99 0 113.99 0Q113.79-0.85 113.79-2L113.79-2Q113.79-3.2 113.99-4L113.99-4 111.49-4Q111.29-4.85 111.29-6L111.29-6Q111.29-7.2 111.49-8L111.49-8 109.99-8Q109.79-8.85 109.79-10L109.79-10Q109.79-11.2 109.99-12L109.99-12 107.99-12Q107.79-12.85 107.79-14L107.79-14Q107.79-15.2 107.99-16L107.99-16 105.99-16Q106.19-15.2 106.19-14L106.19-14Q106.19-12.85 105.99-12L105.99-12Q106.19-11.2 106.19-10L106.19-10Q106.19-8.85 105.99-8L105.99-8Q106.19-7.2 106.19-6L106.19-6Q106.19-4.85 105.99-4L105.99-4Q106.19-3.2 106.19-2L106.19-2Q106.19-0.85 105.99 0L105.99 0 101.99 0Q101.79-0.85 101.79-2L101.79-2Q101.79-3.2 101.99-4L101.99-4Q101.79-4.85 101.79-6L101.79-6Q101.79-7.2 101.99-8L101.99-8Q101.79-8.85 101.79-10L101.79-10Q101.79-11.2 101.99-12L101.99-12Q101.79-12.85 101.79-14L101.79-14Q101.79-15.2 101.99-16L101.99-16Q101.79-16.85 101.79-18L101.79-18Q101.79-19.2 101.99-20L101.99-20Q101.79-20.85 101.79-22L101.79-22Q101.79-23.2 101.99-24L101.99-24Q101.79-24.85 101.79-26L101.79-26Q101.79-27.2 101.99-28L101.99-28 106.99-28Q107.19-27.2 107.19-26L107.19-26Q107.19-24.85 106.99-24L106.99-24 108.49-24Q108.69-23.2 108.69-22L108.69-22Q108.69-20.85 108.49-20L108.49-20 109.99-20Q110.19-19.2 110.19-18L110.19-18Q110.19-16.85 109.99-16L109.99-16 111.99-16Q112.19-15.2 112.19-14L112.19-14Q112.19-12.85 111.99-12L111.99-12 113.99-12Q113.79-12.85 113.79-14L113.79-14Q113.79-15.2 113.99-16L113.99-16Q113.79-16.85 113.79-18L113.79-18Q113.79-19.2 113.99-20L113.99-20Q113.79-20.85 113.79-22L113.79-22Q113.79-23.2 113.99-24L113.99-24Q113.79-24.85 113.79-26L113.79-26Q113.79-27.2 113.99-28L113.99-28 117.99-28Q118.19-27.2 118.19-26L118.19-26Q118.19-24.85 117.99-24L117.99-24Z"
                                        opacity="1" transform="matrix(1,0,0,1,0,0)" fill="#000000"
                                        class="wordmark-text-0" data-fill-palette-color="primary"
                                        id="text-0"></path>
                                    </svg>
                                  </g>
                                </svg>
                              </g>
                              <g transform="matrix(1,0,0,1,0,72.67869980080823)">
                                <svg viewBox="0 0 164.86895231999998 13.684604338355625"
                                  height="13.684604338355625" width="164.86895231999998">
                                  <g transform="matrix(1,0,0,1,0,0)">
                                    <svg width="164.86895231999998" viewBox="4 -36.01 560.28 46.51"
                                      height="13.684604338355625" data-palette-color="#000000">
                                      <path
                                        d="M26.49-14.99L9.5-14.99Q8.47-14.99 7.56-15.39 6.64-15.8 5.96-16.47 5.27-17.14 4.88-18.05 4.49-18.97 4.49-20L4.49-20 4.49-30Q4.49-31.03 4.88-31.95 5.27-32.86 5.96-33.53 6.64-34.2 7.56-34.61 8.47-35.01 9.5-35.01L9.5-35.01 26.49-35.01Q27.51-35.01 28.43-34.61 29.35-34.2 30.03-33.53 30.71-32.86 31.1-31.95 31.49-31.03 31.49-30L31.49-30 31.49-25.49 26.49-25.49 26.49-30 9.5-30 9.5-20 26.49-20Q27.51-20 28.43-19.6 29.35-19.21 30.03-18.53 30.71-17.85 31.1-16.93 31.49-16.02 31.49-14.99L31.49-14.99 31.49-5Q31.49-3.98 31.1-3.06 30.71-2.15 30.03-1.46 29.35-0.78 28.43-0.39 27.51 0 26.49 0L26.49 0 9.01 0Q7.98 0 7.07-0.39 6.15-0.78 5.47-1.46 4.79-2.15 4.39-3.06 4-3.98 4-5L4-5 4-9.5 9.01-9.5 9.01-5 26.49-5 26.49-14.99ZM63.01-21.19L63.01 0 58.2 0 58.2-21.19 44.8-21.19 44.8 0 40.01 0 40.01-36.01 44.8-36.01 44.8-21.41Q44.85-22.36 45.24-23.21 45.63-24.05 46.27-24.67 46.92-25.29 47.78-25.65 48.63-26 49.61-26L49.61-26 58.2-26Q59.2-26 60.08-25.62 60.96-25.24 61.61-24.6 62.25-23.95 62.63-23.07 63.01-22.19 63.01-21.19L63.01-21.19ZM71.02-4.81L71.02-11.35Q71.02-12.35 71.39-13.22 71.77-14.09 72.42-14.75 73.07-15.41 73.95-15.78 74.82-16.16 75.8-16.16L75.8-16.16 88.2-16.16 88.2-21.19 72.5-21.19 72.5-26 88.2-26Q89.2-26 90.08-25.62 90.96-25.24 91.61-24.6 92.26-23.95 92.63-23.07 93.01-22.19 93.01-21.19L93.01-21.19 93.01 0 88.2 0 88.2-4.39Q88.13-3.49 87.71-2.69 87.3-1.88 86.65-1.28 86.01-0.68 85.18-0.34 84.35 0 83.42 0L83.42 0 75.8 0Q74.82 0 73.95-0.38 73.07-0.76 72.42-1.4 71.77-2.05 71.39-2.93 71.02-3.81 71.02-4.81L71.02-4.81ZM75.8-11.35L75.8-4.81 88.2-4.81 88.2-11.35 75.8-11.35ZM115.72-21.19L105.8-21.19 105.8 0 101.02 0 101.02-26 105.8-26 105.8-21.41Q105.85-22.36 106.24-23.21 106.63-24.05 107.28-24.67 107.93-25.29 108.78-25.65 109.64-26 110.61-26L110.61-26 115.72-26Q116.72-26 117.58-25.62 118.45-25.24 119.11-24.6 119.77-23.95 120.15-23.07 120.52-22.19 120.52-21.19L120.52-21.19 120.52-16.8 115.72-16.8 115.72-21.19ZM148.5-21.19L148.5-10.55 131.29-10.55 131.29-4.81 148.5-4.81 148.5 0 131.29 0Q130.31 0 129.43-0.38 128.55-0.76 127.91-1.4 127.26-2.05 126.88-2.93 126.5-3.81 126.5-4.81L126.5-4.81 126.5-21.19Q126.5-22.19 126.88-23.07 127.26-23.95 127.91-24.6 128.55-25.24 129.43-25.62 130.31-26 131.29-26L131.29-26 143.69-26Q144.69-26 145.57-25.62 146.45-25.24 147.1-24.6 147.74-23.95 148.12-23.07 148.5-22.19 148.5-21.19L148.5-21.19ZM143.69-21.19L131.29-21.19 131.29-15.36 143.69-15.36 143.69-21.19ZM156.51-4.81L156.51-21.19Q156.51-22.19 156.88-23.07 157.26-23.95 157.91-24.6 158.56-25.24 159.44-25.62 160.31-26 161.29-26L161.29-26 174.69-26 174.69-36.01 179.5-36.01 179.5 0 174.69 0 174.69-4.39Q174.62-3.49 174.21-2.69 173.79-1.88 173.14-1.28 172.5-0.68 171.67-0.34 170.84 0 169.91 0L169.91 0 161.29 0Q160.31 0 159.44-0.38 158.56-0.76 157.91-1.4 157.26-2.05 156.88-2.93 156.51-3.81 156.51-4.81L156.51-4.81ZM161.29-21.19L161.29-4.81 174.69-4.81 174.69-21.19 161.29-21.19ZM219.68-21.19L207.28-21.19 207.28-4.81 219.68-4.81 219.68-9.2 224.49-9.2 224.49-4.81Q224.49-3.81 224.12-2.93 223.74-2.05 223.09-1.4 222.44-0.76 221.56-0.38 220.69 0 219.68 0L219.68 0 207.28 0Q206.31 0 205.43-0.38 204.55-0.76 203.9-1.4 203.25-2.05 202.88-2.93 202.5-3.81 202.5-4.81L202.5-4.81 202.5-21.19Q202.5-22.19 202.88-23.07 203.25-23.95 203.9-24.6 204.55-25.24 205.43-25.62 206.31-26 207.28-26L207.28-26 219.68-26Q220.69-26 221.56-25.62 222.44-25.24 223.09-24.6 223.74-23.95 224.12-23.07 224.49-22.19 224.49-21.19L224.49-21.19 224.49-16.8 219.68-16.8 219.68-21.19ZM255.5-21.19L255.5 0 250.69 0 250.69-21.19 237.28-21.19 237.28 0 232.5 0 232.5-36.01 237.28-36.01 237.28-21.41Q237.33-22.36 237.72-23.21 238.11-24.05 238.76-24.67 239.41-25.29 240.26-25.65 241.12-26 242.09-26L242.09-26 250.69-26Q251.69-26 252.57-25.62 253.45-25.24 254.09-24.6 254.74-23.95 255.12-23.07 255.5-22.19 255.5-21.19L255.5-21.19ZM263.5-4.81L263.5-11.35Q263.5-12.35 263.88-13.22 264.26-14.09 264.91-14.75 265.55-15.41 266.43-15.78 267.31-16.16 268.29-16.16L268.29-16.16 280.69-16.16 280.69-21.19 264.99-21.19 264.99-26 280.69-26Q281.69-26 282.57-25.62 283.45-25.24 284.1-24.6 284.74-23.95 285.12-23.07 285.5-22.19 285.5-21.19L285.5-21.19 285.5 0 280.69 0 280.69-4.39Q280.62-3.49 280.2-2.69 279.79-1.88 279.14-1.28 278.49-0.68 277.66-0.34 276.83 0 275.91 0L275.91 0 268.29 0Q267.31 0 266.43-0.38 265.55-0.76 264.91-1.4 264.26-2.05 263.88-2.93 263.5-3.81 263.5-4.81L263.5-4.81ZM268.29-11.35L268.29-4.81 280.69-4.81 280.69-11.35 268.29-11.35ZM308.2-21.19L298.29-21.19 298.29 0 293.51 0 293.51-26 298.29-26 298.29-21.41Q298.34-22.36 298.73-23.21 299.12-24.05 299.77-24.67 300.41-25.29 301.27-25.65 302.12-26 303.1-26L303.1-26 308.2-26Q309.2-26 310.07-25.62 310.94-25.24 311.6-24.6 312.26-23.95 312.63-23.07 313.01-22.19 313.01-21.19L313.01-21.19 313.01-16.8 308.2-16.8 308.2-21.19ZM318.99-5.81L318.99-21.19Q318.99-22.19 319.37-23.07 319.75-23.95 320.39-24.6 321.04-25.24 321.92-25.62 322.8-26 323.78-26L323.78-26 332.39-26Q333.35-26 334.2-25.65 335.06-25.29 335.7-24.67 336.35-24.05 336.75-23.21 337.16-22.36 337.18-21.41L337.18-21.41 337.18-26 341.99-26 341.99 5.69Q341.99 6.69 341.61 7.57 341.23 8.45 340.59 9.09 339.94 9.74 339.06 10.12 338.18 10.5 337.18 10.5L337.18 10.5 321.99 10.5 321.99 5.69 337.18 5.69 337.18-1 323.78-1Q322.8-1 321.92-1.38 321.04-1.76 320.39-2.4 319.75-3.05 319.37-3.93 318.99-4.81 318.99-5.81L318.99-5.81ZM323.78-5.81L337.18-5.81 337.18-21.19 323.78-21.19 323.78-5.81ZM350.24-26L355.05-26 355.05 0 350.24 0 350.24-26ZM349.99-31.01L349.99-36.01 355.29-36.01 355.29-31.01 349.99-31.01ZM386.3-21.19L386.3 0 381.49 0 381.49-21.19 368.08-21.19 368.08 0 363.3 0 363.3-26 368.08-26 368.08-21.41Q368.13-22.36 368.52-23.21 368.91-24.05 369.56-24.67 370.21-25.29 371.06-25.65 371.92-26 372.89-26L372.89-26 381.49-26Q382.49-26 383.37-25.62 384.24-25.24 384.89-24.6 385.54-23.95 385.92-23.07 386.3-22.19 386.3-21.19L386.3-21.19ZM394.3-5.81L394.3-21.19Q394.3-22.19 394.68-23.07 395.06-23.95 395.7-24.6 396.35-25.24 397.23-25.62 398.11-26 399.09-26L399.09-26 407.7-26Q408.66-26 409.51-25.65 410.37-25.29 411.01-24.67 411.66-24.05 412.06-23.21 412.47-22.36 412.49-21.41L412.49-21.41 412.49-26 417.3-26 417.3 5.69Q417.3 6.69 416.92 7.57 416.54 8.45 415.9 9.09 415.25 9.74 414.37 10.12 413.49 10.5 412.49 10.5L412.49 10.5 397.3 10.5 397.3 5.69 412.49 5.69 412.49-1 399.09-1Q398.11-1 397.23-1.38 396.35-1.76 395.7-2.4 395.06-3.05 394.68-3.93 394.3-4.81 394.3-5.81L394.3-5.81ZM399.09-5.81L412.49-5.81 412.49-21.19 399.09-21.19 399.09-5.81ZM463.29-21.19L463.29-4.81Q463.29-3.81 462.91-2.93 462.53-2.05 461.89-1.4 461.24-0.76 460.36-0.38 459.48 0 458.48 0L458.48 0 445.08 0 445.08 10.5 440.29 10.5 440.29-26 445.08-26 445.08-21.61Q445.15-22.53 445.57-23.33 445.98-24.12 446.62-24.72 447.25-25.32 448.09-25.66 448.93-26 449.89-26L449.89-26 458.48-26Q459.48-26 460.36-25.62 461.24-25.24 461.89-24.6 462.53-23.95 462.91-23.07 463.29-22.19 463.29-21.19L463.29-21.19ZM445.08-4.81L458.48-4.81 458.48-21.19 445.08-21.19 445.08-4.81ZM493.78-21.19L493.78-4.81Q493.78-3.81 493.4-2.93 493.02-2.05 492.38-1.4 491.73-0.76 490.86-0.38 490 0 489 0L489 0 476.08 0Q475.1 0 474.23-0.38 473.35-0.76 472.7-1.4 472.05-2.05 471.67-2.93 471.3-3.81 471.3-4.81L471.3-4.81 471.3-21.19Q471.3-22.19 471.67-23.07 472.05-23.95 472.7-24.6 473.35-25.24 474.23-25.62 475.1-26 476.08-26L476.08-26 489-26Q490-26 490.86-25.62 491.73-25.24 492.38-24.6 493.02-23.95 493.4-23.07 493.78-22.19 493.78-21.19L493.78-21.19ZM489-21.19L476.08-21.19 476.08-4.81 489-4.81 489-21.19ZM502.03-26L506.84-26 506.84 0 502.03 0 502.03-26ZM501.79-31.01L501.79-36.01 507.08-36.01 507.08-31.01 501.79-31.01ZM538.09-21.19L538.09 0 533.28 0 533.28-21.19 519.87-21.19 519.87 0 515.09 0 515.09-26 519.87-26 519.87-21.41Q519.92-22.36 520.31-23.21 520.7-24.05 521.35-24.67 522-25.29 522.85-25.65 523.71-26 524.68-26L524.68-26 533.28-26Q534.28-26 535.16-25.62 536.04-25.24 536.68-24.6 537.33-23.95 537.71-23.07 538.09-22.19 538.09-21.19L538.09-21.19ZM544.58-21.19L544.58-26 550.93-26 550.93-34.01 555.74-34.01 555.74-26 564.28-26 564.28-21.19 555.74-21.19 555.74-4.81 564.28-4.81 564.28 0 555.74 0Q554.76 0 553.88-0.38 553-0.76 552.34-1.4 551.68-2.05 551.3-2.93 550.93-3.81 550.93-4.81L550.93-4.81 550.93-21.19 544.58-21.19Z"
                                        opacity="1" transform="matrix(1,0,0,1,0,0)" fill="#000000"
                                        class="slogan-text-1" data-fill-palette-color="secondary"
                                        id="text-1"></path>
                                    </svg>
                                  </g>
                                </svg>
                              </g>
                            </svg>
                          </g>
                        </svg>
                      </g>
                    </svg>
                  </g>
                </svg>
              </g>
              <path
                d="M220.316 74.418L220.316 15.479 4.074 15.479 4.074 231.721 220.316 231.721 220.316 172.782 215.014 172.782 215.014 226.419 9.377 226.419 9.377 20.781 215.014 20.781 215.014 74.418Z"
                fill="#000000" stroke="transparent" data-fill-palette-color="tertiary"></path>
            </svg>
          </g>
          <defs></defs>
        </svg>
        <rect width="395.52" height="247.2" fill="none" stroke="none" visibility="hidden"></rect>
      </g>
    </svg>
  </g>
</svg>